<svg width="218" height="403" xmlns="http://www.w3.org/2000/svg"><g fill="none" fill-rule="evenodd"><g stroke="#676D71" stroke-linejoin="round"><path d="M22 283.456C8.667 335.152 2 367.666 2 381c0 13.333 6.667 20 20 20h160c13.333 0 20-6.667 20-20s-6.667-45.848-20-97.544" stroke-width="4" stroke-linecap="round"/><path d="M30.935 231L18.86 178.5h166.135l-9.54 52.5 9.54 52.5H18.86L30.935 231z" stroke-width="5" fill="#F1BB64"/><path stroke-width="4" stroke-linecap="round" d="M182 178.592L202 101H2l20 77.592"/><path stroke-width="4" stroke-linecap="round" d="M184.081 184.722L216 101h-17"/></g><path d="M39 301c-10.667 36.943-16 60.18-16 69.708C23 380.236 28.333 385 39 385h128c10.667 0 16-4.764 16-14.292 0-9.529-5.333-32.765-16-69.708-23.667 12.573-45.333 12.573-65 0s-40.667-12.573-63 0z" fill="#95714D"/><g transform="translate(30.5 226)" stroke="#676D71"><path stroke-width="3" d="M0 5h146.5"/><circle stroke-width="3" fill="#F1BB64" cx="151.5" cy="5" r="5"/><path d="M151.5 10c5.85 21.684 9.489 36.193 10.919 43.528 1.43 7.335 3.402 13.069 5.918 17.2M154.105 10c6.29 10.815 11.034 20.36 14.232 28.634 3.199 8.274 4.253 13.73 3.163 16.366" stroke-width="2"/></g><g stroke="#979797" stroke-linecap="round" stroke-width="2"><path d="M33.5 81c-12.667-12.725-12.667-26.058 0-40s12.667-27.275 0-40M82.5 81c-12.667-12.725-12.667-26.058 0-40s12.667-27.275 0-40M131.5 81c-12.667-12.725-12.667-26.058 0-40s12.667-27.275 0-40M180.5 81c-12.667-12.725-12.667-26.058 0-40s12.667-27.275 0-40"/></g></g></svg>