<?xml version="1.0" encoding="UTF-8"?>
<svg width="218px" height="403px" viewBox="0 0 218 403" version="1.1" xmlns="http://www.w3.org/2000/svg" xmlns:xlink="http://www.w3.org/1999/xlink">
    <!-- Generator: Sketch 61.2 (89653) - https://sketch.com -->
    <title>Chemex</title>
    <desc>Created with Sketch.</desc>
    <g id="Page-1" stroke="none" stroke-width="1" fill="none" fill-rule="evenodd">
        <g id="Chemex" transform="translate(2.000000, 1.000000)">
            <g id="Body" transform="translate(0.000000, 100.000000)" stroke="#676D71" stroke-linejoin="round">
                <path d="M20,182.455701 C6.66666667,234.1519 0,266.666667 0,280 C0,293.333333 6.66666667,300 20,300 L180,300 C193.333333,300 200,293.333333 200,280 C200,266.666667 193.333333,234.1519 180,182.455701" id="Bottom" stroke-width="4" stroke-linecap="round"></path>
                <path d="M28.9347271,130 L16.8597271,77.5 L182.995239,77.5 L173.455004,130 L182.995239,182.5 L16.8597271,182.5 L28.9347271,130 Z" id="Bamboo" stroke-width="5" fill="#edc06b"></path>
                <polyline id="Top" stroke-width="4" stroke-linecap="round" points="180 77.5918257 200 2.06057393e-13 0 2.06057393e-13 20 77.5918257"></polyline>
                <polyline id="Channel" stroke-width="4" stroke-linecap="round" points="182.081138 83.7222741 214 0 197 0"></polyline>
            </g>
            <path d="M37,300 C26.3333333,336.943355 21,360.179194 21,369.707516 C21,379.235839 26.3333333,384 37,384 L165,384 C175.666667,384 181,379.235839 181,369.707516 C181,360.179194 175.666667,336.943355 165,300 C141.333333,312.573084 119.666667,312.573084 100,300 C80.3333333,287.426916 59.3333333,287.426916 37,300 Z" id="Coffee" fill="#95714D"></path>
            <g id="Rawhide" transform="translate(28.500000, 225.000000)" stroke="#676D71">
                <line x1="0" y1="5" x2="146.5" y2="5" stroke-width="3"></line>
                <circle id="Ball" stroke-width="3" fill="#edc06b" cx="151.5" cy="5" r="5"></circle>
                <path d="M151.5,10 C157.349315,31.6835412 160.988894,46.1929369 162.418736,53.5281872 C163.848579,60.8634375 165.821491,66.5965545 168.337473,70.7275381" id="Rawhide-Tail-1" stroke-width="2"></path>
                <path d="M154.105249,10 C160.395098,20.8153809 165.139172,30.3600523 168.337473,38.6340143 C171.535773,46.9079762 172.589948,52.3633113 171.5,55.0000196" id="Rawhide-Tail-2" stroke-width="2"></path>
            </g>
            <g id="Vapor" transform="translate(22.000000, 0.000000)" stroke="#979797" stroke-linecap="round" stroke-width="2">
                <path d="M9.5,80 C-3.16666667,67.2751754 -3.16666667,53.941842 9.5,40 C22.1666667,26.058158 22.1666667,12.7248246 9.5,0" id="Vapor-Trail-1"></path>
                <path d="M58.5,80 C45.8333333,67.2751754 45.8333333,53.941842 58.5,40 C71.1666667,26.058158 71.1666667,12.7248246 58.5,0" id="Vapor-Trail-2"></path>
                <path d="M107.5,80 C94.8333333,67.2751754 94.8333333,53.941842 107.5,40 C120.166667,26.058158 120.166667,12.7248246 107.5,0" id="Vapor-Trail-3"></path>
                <path d="M156.5,80 C143.833333,67.2751754 143.833333,53.941842 156.5,40 C169.166667,26.058158 169.166667,12.7248246 156.5,0" id="Vapor-Trail-4"></path>
            </g>
        </g>
    </g>
</svg>
