<svg width="42" height="54" xmlns="http://www.w3.org/2000/svg"><g fill="#4a5762" fill-rule="evenodd"><path d="M2.839 16.031v1.057l1.463-.519v-.02l-1.463-.518zm2.567.891l-1.237.459c-.812.299-1.637.592-2.302.845-.592.226-.638.318-.677.704h-.187v-1.749h.187l.026.187c.04.253.106.266.359.186.198-.067.612-.226.957-.366v-1.23c-.2-.087-.571-.207-.85-.299-.354-.12-.441-.067-.474.226l-.018.186h-.187v-1.477h.187c.051.412.079.486.677.719l3.458 1.343.081.266zM2.014 20.523c-.613 0-.739.067-.739.58 0 1.103.778 1.675 1.883 1.675 1.424 0 1.914-.718 1.914-1.782 0-.22-.025-.392-.058-.432-.034-.041-.154-.041-.327-.041H2.014zm3.311.686c0 .745-.158 1.423-.584 1.862a1.976 1.976 0 01-1.384.559c-1.635 0-2.354-1.264-2.354-2.82v-1.63h.187c.039.546.092.599.81.599h2.327c.72 0 .774-.053.813-.546h.185v1.976zM3.21 27.079a.736.736 0 01-.744-.725c0-.399.333-.732.744-.732.406 0 .746.333.746.732a.74.74 0 01-.746.725M5.325 29.958l-3.172 1.47 3.172 1.39v1.257H5.14c-.054-.538-.079-.565-.813-.552L2 33.589c-.744.02-.759.04-.81.579h-.187v-1.856h.187c.051.52.066.54.81.532l2.554-.026v-.027l-3.471-1.51v-.199l3.338-1.457v-.026l-1.722-.047c-.599-.012-.965-.006-1.164.021-.253.026-.306.165-.345.605h-.187v-1.576h.187c.026.332.092.465.345.511.199.034.591.087 1.231.12l1.369.073c.886.047.951 0 1.005-.571h.185v1.223M2.837 35.947l.014 1.057 1.456-.538v-.02l-1.47-.499zm2.58.857l-1.233.475c-.806.31-1.627.615-2.288.876-.589.233-.634.327-.669.714l-.187.002-.023-1.748.186-.004.029.187c.043.252.11.264.362.181.198-.069.608-.234.953-.379l-.017-1.23c-.201-.084-.575-.199-.855-.289-.355-.114-.44-.059-.47.233l-.017.186-.186.004-.021-1.477.188-.002c.059.411.085.484.687.709l3.477 1.297.084.265zM4.558 38.86c.685-.214.719-.28.594-.819l.177-.056.559 1.792-.178.055c-.178-.439-.244-.474-.931-.26l-2.05.64c-.695.216-1.264.331-1.852-.099a2.252 2.252 0 01-.6-.649l.154-.131c.33.363.668.44 1.028.411.325-.032.698-.135 1.129-.269l1.97-.615M4.067 41.536c-1.01.653-1.503 1.605-.992 2.399.376.58 1.15.714 2.2.035 1.164-.75 1.517-1.637 1.034-2.385-.383-.592-1.251-.687-2.242-.049zm1.884 3.026c-1.189.77-2.504.438-3.189-.623-.711-1.1-.358-2.357.658-3.014.917-.592 2.376-.624 3.225.689.623.967.396 2.245-.694 2.948zM7.276 45.562l.193.162c.204.171.372.258.591.268.34.007.615-.179.82-.423.441-.532.229-1.021-.098-1.294-.245-.204-.271-.192-.408-.029l-1.098 1.316zm1.796-1.375c.372.311.602.574.696.877a.969.969 0 01-.204.928c-.357.429-.874.508-1.415.317-.039.211-.136.734-.164 1.1-.041.442-.062.736-.049.919.02.225.037.369.155.529l-.131.116-.205-.19c-.523-.505-.577-.792-.538-1.244.033-.371.138-.838.211-1.227.037-.21.019-.313-.135-.44l-.163-.136-.57.683c-.459.551-.453.626-.091.98l-.119.143-1.44-1.201.12-.143c.435.311.509.303.969-.247l1.49-1.786c.459-.55.452-.625.091-.979l.118-.143 1.374 1.144zM13.22 47.032c-.042.1-.262.54-.431.919l-.18-.088c.1-.309.122-.511.085-.647-.042-.154-.208-.294-.566-.498l-.29-.164c-.219-.125-.231-.132-.35.076l-.695 1.227.496.283c.498.281.528.254.84-.158l.185.104-.697 1.227-.185-.106c.202-.49.204-.52-.294-.802l-.497-.283-.54.949c-.19.335-.259.51-.198.644.065.129.27.253.512.391.29.164.57.293.774.217.159-.054.369-.195.626-.416l.154.133c-.135.184-.598.7-.736.836l-2.822-1.603.092-.163c.516.248.59.229.944-.396l1.151-2.024c.355-.624.335-.697-.085-.982l.092-.162 2.615 1.486M14.792 47.753l.185 3.491 2.469-2.429 1.167.469-.069.172c-.52-.152-.555-.136-.813.548l-.805 2.185c-.258.699-.245.718.235.967l-.068.175-1.722-.69.069-.174c.5.143.525.139.795-.555l.925-2.38-.026-.01-2.69 2.661-.185-.074-.111-3.64-.025-.011-.684 1.582c-.235.551-.365.892-.414 1.088-.069.244.04.346.433.546l-.069.173-1.463-.586.069-.173c.319.099.467.086.604-.131.105-.173.301-.517.568-1.097l.578-1.244c.372-.804.355-.883-.158-1.145l.069-.174 1.136.456M21.725 52.431a.736.736 0 01-.922.482.741.741 0 01-.462-.936.743.743 0 01.927-.479c.38.125.584.548.457.933M25.489 52.319c.24.563.349.654.822.454 1.016-.432 1.239-1.371.808-2.388-.556-1.31-1.41-1.483-2.39-1.067-.202.086-.351.178-.374.224-.024.046.023.156.09.316l1.044 2.461zm-.591-3.325c.694-.271 1.383-.37 1.947-.134a1.98 1.98 0 011.024 1.085c.596 1.525-.319 2.654-1.768 3.221l-1.518.592-.068-.172c.494-.236.523-.305.262-.974l-.848-2.168c-.261-.669-.33-.699-.803-.557l-.068-.174 1.84-.719zM29.744 46.78c.061.089.309.514.533.863l-.171.102c-.206-.253-.362-.383-.496-.426-.152-.049-.36.013-.726.201l-.296.151c-.226.115-.238.121-.128.334l.642 1.255.509-.261c.509-.26.503-.302.328-.788l.191-.096.642 1.254-.189.097c-.301-.438-.324-.454-.832-.194l-.509.261.496.97c.176.344.285.497.431.52.144.017.359-.087.608-.215.295-.151.556-.315.605-.526.043-.164.041-.417-.005-.753l.195-.055c.08.213.26.884.296 1.073l-2.887 1.48-.085-.165c.49-.297.514-.368.185-1.008l-1.059-2.071c-.329-.639-.4-.662-.869-.468l-.083-.165 2.674-1.37M31.833 45.512l.098.158c-.409.3-.427.373-.048.985l1.226 1.979c.378.611.452.629.903.397l.097.158-1.595.987-.097-.157c.419-.308.437-.38.058-.992l-1.226-1.98c-.378-.611-.451-.629-.913-.389l-.099-.159 1.596-.987M35.346 45.403a.734.734 0 01-.104 1.034.745.745 0 01-.928-1.165.741.741 0 011.032.131M39.861 41.204c.229.074.432.139.576.146-.013.428-.026.982-.182 1.464-.458 1.41-1.607 2.079-2.871 1.668-1.441-.468-1.821-1.863-1.418-3.103.177-.545.435-.95.56-1.161.22.057.56.126 1.057.231l-.04.211c-.851-.094-1.188.384-1.356.902-.284.873.187 1.683 1.338 2.057.974.317 2.115.226 2.489-.926a1.06 1.06 0 00.069-.445c-.012-.137-.104-.222-.357-.304l-.53-.174c-.431-.139-.477-.126-.745.528l-.19-.062.572-1.758.189.062c-.057.345-.04.378.403.522l.436.142M36.82 37.691l.185.027c-.037.531.008.592.72.693l2.292.325c.382.055.572.041.667-.059.094-.101.138-.316.168-.528.044-.302.133-1.105-.012-1.267-.11-.129-.319-.266-.62-.417l.07-.204c.205.069.856.309 1.046.389l-.508 3.572-.186-.026c.039-.559-.006-.619-.717-.72l-2.304-.327c-.711-.101-.772-.056-.887.465l-.184-.026.27-1.897M38.971 35.254c1.201.082 2.166-.384 2.23-1.327.047-.69-.494-1.261-1.741-1.345-1.381-.095-2.195.403-2.255 1.292-.048.703.591 1.301 1.766 1.38zm.302-3.552c1.413.097 2.269 1.148 2.182 2.409-.089 1.306-1.123 2.103-2.331 2.021-1.089-.074-2.277-.923-2.17-2.482.078-1.148 1.025-2.036 2.319-1.948zM39.257 30.214v-.253c0-.266-.04-.452-.173-.625-.213-.266-.533-.359-.852-.359-.691 0-.931.479-.931.904 0 .32.027.333.24.333h1.716zm-2.209-.5c0-.485.054-.831.227-1.097a.97.97 0 01.844-.438c.559 0 .952.345 1.151.884.187-.106.653-.366.951-.579.366-.252.606-.425.738-.551.16-.16.26-.267.306-.46l.174.027-.014.279c-.053.725-.24.951-.612 1.211-.306.213-.73.432-1.077.625-.187.107-.253.187-.253.385v.214h.892c.717 0 .771-.053.81-.559h.187v1.876h-.187c-.039-.532-.093-.585-.81-.585h-2.329c-.718 0-.771.053-.811.558h-.187v-1.79zM37.048 25.144h.187c.04.505.093.559.811.559h2.329c.717 0 .771-.054.81-.559h.187v1.876h-.187c-.039-.519-.093-.572-.81-.572h-2.329c-.718 0-.771.053-.811.572h-.187v-1.876M39.537 23.367V22.31l-1.464.518v.02l1.464.519zm-2.569-.892l1.238-.458c.811-.3 1.636-.592 2.301-.845.592-.227.639-.319.678-.705h.187v1.749h-.187l-.027-.186c-.039-.253-.107-.266-.359-.186-.198.066-.611.226-.957.365v1.231c.2.086.572.206.852.299.352.119.438.067.473-.226l.018-.186h.187v1.476h-.187c-.053-.412-.079-.485-.678-.718l-3.459-1.343-.08-.267zM37.048 18.711l3.173-1.469-3.173-1.391v-1.257h.187c.053.539.08.566.811.552l2.329-.066c.744-.02.757-.04.81-.579h.187v1.856h-.187c-.053-.519-.066-.539-.81-.532l-2.555.026v.027l3.472 1.51v.199l-3.339 1.457v.026l1.723.047c.598.013.964.007 1.164-.02.252-.027.306-.166.345-.605h.187v1.576h-.187c-.027-.333-.093-.465-.345-.512a11.14 11.14 0 00-1.231-.12l-1.37-.073c-.885-.046-.951 0-1.004.572h-.187v-1.224M.977 8.04v-.356c1.051-.062 1.128-.139 1.128-1.301V2.777c0-1.162-.092-1.223-1.053-1.286v-.356h3.349v.356c-1.035.063-1.126.124-1.126 1.286V6.43c0 .604.075.913.287 1.022.209.108.525.124 1.08.124.586 0 1.067-.109 1.306-.387.182-.186.362-.542.513-1.038l.39.047c-.075.356-.301 1.548-.39 1.842H.977M10.682 7.761c1.156 0 2.072-.774 2.072-2.941 0-1.765-.842-3.406-2.344-3.406-1.216 0-2.087 1.069-2.087 2.957 0 2.012.871 3.39 2.359 3.39zM6.971 4.743c0-2.601 1.981-3.794 3.575-3.794 2.162 0 3.561 1.564 3.561 3.561 0 2.431-1.789 3.716-3.546 3.716-2.328 0-3.59-1.811-3.59-3.483zM15.58 8.04v-.356c1.082-.077 1.157-.155 1.157-1.285v-.944c0-.295-.03-.387-.226-.728-.316-.573-.736-1.285-1.427-2.461-.39-.682-.496-.697-1.172-.775v-.356h3.005v.356l-.466.063c-.345.046-.361.139-.21.449.075.154 1.037 1.857 1.397 2.461.466-.821.93-1.858 1.171-2.369.196-.433.166-.495-.241-.541l-.435-.063v-.356h2.644v.356c-.811.078-.871.186-1.276.79a30.488 30.488 0 00-1.352 2.245c-.226.418-.242.526-.242.758v1.115c0 1.13.092 1.208 1.203 1.285v.356h-3.53M24.101 7.761c1.157 0 2.072-.774 2.072-2.941 0-1.765-.841-3.406-2.343-3.406-1.217 0-2.088 1.069-2.088 2.957 0 2.012.871 3.39 2.359 3.39zM20.39 4.743c0-2.601 1.982-3.794 3.575-3.794 2.162 0 3.561 1.564 3.561 3.561 0 2.431-1.789 3.716-3.546 3.716-2.328 0-3.59-1.811-3.59-3.483zM28.051 8.04v-.356c1.051-.062 1.126-.139 1.126-1.301V2.777c0-1.162-.09-1.223-1.052-1.286v-.356h3.351v.356c-1.037.063-1.127.124-1.127 1.286V6.43c0 .604.075.913.286 1.022.21.108.525.124 1.082.124.585 0 1.065-.109 1.306-.387.18-.186.361-.542.51-1.038l.391.047c-.075.356-.3 1.548-.391 1.842h-5.482M36.446 4.975h1.743l-.871-2.353h-.03l-.842 2.353zm1.894 2.709l.285-.031c.421-.046.556-.17.256-.897l-.511-1.255h-2.088c-.106.248-.361.976-.51 1.44-.181.526-.045.681.389.712l.346.031v.356h-2.629v-.356c.661-.077.918-.139 1.353-1.207l2.223-5.434.374-.094 2.24 5.714c.36.913.646.975 1.306 1.021v.356H38.34v-.356zM12.027 23.71a.483.483 0 00-.473.494c0 .268.211.482.473.482a.475.475 0 00.472-.482.482.482 0 00-.472-.494M12.027 22.866a.44.44 0 00.435-.446.44.44 0 00-.435-.446c-.241 0-.436.2-.436.446s.195.446.436.446M18.946 22.189c-.514 0-.636.815-.636 1.187 0 .373.122 1.199.636 1.199.516 0 .639-.826.639-1.199 0-.372-.123-1.187-.639-1.187M16.047 28.022h.771l-.159-.266-.612.266"/><path d="M29.428 34.191c1.261.588 1.261 1.953 1.261 1.598 0-2.034-.67-1.89-.642-3.175.026-1.283 1.4-1.172 1.4-1.172.539.008.701.338.701.338s-.271-.058-.381.088c0 0-.408.297.324 2.042.148.352.799 1.579.013 2.466-.556.627-1.443.394-1.443.394l-.084.504h.644c.59.029.618.674.618.674v2.72l-.45.448h-1.485c-.027-.673.842-.953.842-.953v-1.178h-1.375c-.729-.056-1.12-1.458-1.12-1.458l-.534.057c-.028.084.757 1.513.757 1.513l-1.598 1.515v.448h-1.738c-.084-.421.756-.785.756-.785l1.094-1.178c.14-.151.042-.306-.147-.368-.208-.069-.375-.116-.609-.206-.237-.09-1.235-.715-.813-1.921.413-1.185 1.794-.701 1.794-.841s-.729-1.822-.729-1.822l.589-.87-.702.449-1.85-.337c-.196 1.571-.926 1.178-.926 1.178v-1.178s.028-.775.73-1.009c.841-.28 1.43-.113 1.682-.169.252-.056.179-.28.179-.28l-1.104.028-.982-.813-.533-.056c-.981-.168-.616-.925-.616-.925h1.402c.531 0 1.906 1.009 1.906 1.009s.197-1.121-.84-1.514c-1.038-.392-.814-.7-.814-.7l.981.336s.113-.113-.055-.365c-.091-.136-.871-.42-.871-.42-.616-.225-.42-.729-.42-.729l1.095.111c.251-.223.222-.252.588-.308.364-.056.925.449.868.28-.055-.168-.112-.672-.167-1.177-.05-.453 1.429 1.654 1.429 1.654 1.907 3.617 1.375 6.057 1.375 6.057zm-5.282 2V38.3s.035 1.098-.892 2.025c-.963.963-2.041.861-2.057.859-.017.002-1.094.104-2.058-.859-.928-.927-.892-2.025-.892-2.025v-2.109s-.262-.069-.275-.326c-.017-.326.326-.274.326-.274h.687c-.034.721.413.635.413.635.479.017.377-.635.377-.635h2.844s-.105.652.377.635c0 0 .446.086.413-.635h.686s.343-.052.325.274c-.012.257-.274.326-.274.326zm-8.24-2.252s-.728 1.682-.728 1.822c0 .14 1.381-.344 1.794.841.421 1.206-.577 1.831-.813 1.921-.235.09-.402.137-.609.206-.189.062-.287.217-.147.368l1.092 1.178s.842.364.757.785h-1.738v-.448l-1.599-1.515s.785-1.429.758-1.513l-.532-.057s-.394 1.402-1.122 1.458h-1.374v1.178s.869.28.84.953H11l-.449-.448v-2.72s.028-.645.617-.674h.644l-.083-.504s-.887.233-1.444-.394c-.786-.887-.135-2.114.014-2.466.731-1.745.324-2.042.324-2.042-.109-.146-.381-.088-.381-.088s.161-.33.7-.338c0 0 1.375-.111 1.402 1.172.027 1.285-.644 1.141-.644 3.175 0 .355 0-1.01 1.263-1.598 0 0-.532-2.44 1.374-6.057 0 0 1.48-2.107 1.429-1.654-.056.505-.113 1.009-.167 1.177-.057.169.504-.336.868-.28.364.056.337.085.59.308l1.093-.111s.196.504-.42.729c0 0-.781.284-.871.42-.167.252-.055.365-.055.365l.981-.336s.224.308-.813.7c-1.038.393-.841 1.514-.841 1.514s1.374-1.009 1.906-1.009h1.403s.364.757-.617.925l-.534.056-.98.813-1.106-.028s-.072.224.179.28c.253.056.842-.111 1.683.169.703.234.729 1.009.729 1.009v1.178s-.729.393-.925-1.178l-1.85.337-.702-.449.589.87zm-6.069-8.525h-1v-3.108h-.419l.166-.883h1.253v3.991zm.842-3.025c0-.756.671-1.129 1.348-1.129.676 0 1.348.373 1.348 1.129 0 .42-.262.776-.624.897v.01c.473.158.787.519.787 1.038 0 .819-.829 1.197-1.511 1.197-.683 0-1.512-.378-1.512-1.197 0-.519.315-.88.788-1.038v-.01a.938.938 0 01-.624-.897zm3.385.026v-.956h3.301l-2.209 3.955h-1.239l1.752-2.999h-1.605zm4.882-1.108c1.143 0 1.631 1.075 1.631 2.075 0 .999-.483 2.075-1.631 2.075-1.146 0-1.631-1.076-1.631-2.075 0-1 .49-2.075 1.631-2.075zm2.233 5.882c.007 0 .011.007.017.007.007 0 .011-.007.018-.007a.273.273 0 01.138.51l-.001.004-.002 5.447 1.799 1.827v.581h-.27l-.002-.463-1.68-1.713-1.679 1.713-.002.463h-.271v-.581l1.8-1.827-.002-5.447-.001-.004a.274.274 0 01.138-.51zm13.52-8.808l-7.665 7.037h-1.938l9.603-8.808v-1.762l-11.54 10.57h-1.938l11.627-10.57H30.91l-9.69 8.808v-1.762l7.752-7.046h-1.938l-5.813 5.285v-1.762l3.875-3.523h-1.937l-1.938 1.761v-1.761H7.678v21.524c0 7.902 13.511 11.217 13.511 11.217s13.51-3.315 13.51-11.217V25.418h-1.851l1.851-1.761v-1.762l-3.789 3.523h-1.938l5.727-5.285v-1.752z"/><path d="M26.343 28.022h-.771l.159-.266.612.266M.977 10.298h.487v1.412c0 .157.018.273.056.345.058.129.184.193.379.193.194 0 .32-.064.377-.193.038-.072.056-.188.056-.345v-1.412h.488v1.412c0 .245-.038.436-.113.571-.142.249-.411.375-.808.375-.398 0-.668-.126-.81-.375-.076-.135-.112-.326-.112-.571v-1.412M3.681 10.298h.504l.911 1.603v-1.603h.448v2.298h-.48l-.936-1.63v1.63h-.447v-2.298M6.405 12.597h.478v-2.299h-.478zM9.082 10.298h.499l-.783 2.298h-.455l-.776-2.298h.512l.499 1.745.504-1.745M11.849 10.705h-1.216v.488h1.116v.399h-1.116v.591h1.272v.413h-1.742v-2.298h1.686v.407M13.122 10.697v.618h.516a.552.552 0 00.231-.038c.091-.043.137-.129.137-.258 0-.14-.045-.234-.132-.281a.48.48 0 00-.222-.041h-.53zm.992-.34a.57.57 0 01.215.161.637.637 0 01.158.435.695.695 0 01-.083.322.46.46 0 01-.272.223.436.436 0 01.225.182c.044.079.066.199.066.36v.154c0 .105.005.176.013.214a.195.195 0 00.088.13v.058h-.529a1.046 1.046 0 01-.031-.123 1 1 0 01-.021-.198l-.003-.213c-.002-.147-.027-.245-.077-.293-.048-.05-.139-.074-.272-.074h-.469v.901h-.47v-2.298h1.099c.157.003.278.023.363.059zM15.536 11.887a.452.452 0 00.088.235c.079.095.216.142.408.142.116 0 .21-.013.283-.038.137-.047.205-.136.205-.266a.198.198 0 00-.101-.176 1.042 1.042 0 00-.319-.107l-.249-.055c-.244-.054-.412-.114-.504-.176-.155-.106-.232-.272-.232-.498 0-.205.076-.376.227-.513.152-.136.374-.204.668-.204.245 0 .454.064.627.192.173.129.264.315.273.559h-.462a.328.328 0 00-.185-.294.628.628 0 00-.286-.058.543.543 0 00-.304.075.236.236 0 00-.113.209c0 .082.037.144.111.184.048.027.15.059.306.095l.403.095c.177.042.309.098.398.167.136.108.205.264.205.469 0 .21-.081.384-.243.524-.163.138-.392.208-.688.208-.304 0-.541-.069-.714-.205a.679.679 0 01-.261-.564h.459M17.717 12.597h.477v-2.299h-.477zM20.789 10.298v.407h-.687v1.891h-.483v-1.891h-.691v-.407h1.861M22.599 10.298h.544l-.768 1.437v.861h-.481v-.861l-.795-1.437h.566l.477 1.001.457-1.001M25.17 10.538a.947.947 0 01.707-.283c.382 0 .662.126.839.38.098.142.15.285.157.429h-.481a.647.647 0 00-.117-.25c-.086-.099-.212-.149-.38-.149a.466.466 0 00-.405.211c-.099.141-.149.34-.149.598 0 .257.053.45.157.579a.492.492 0 00.397.192c.165 0 .291-.055.377-.165a.728.728 0 00.119-.266h.477c-.041.25-.146.454-.315.611a.923.923 0 01-.651.235c-.327 0-.584-.106-.771-.318-.186-.213-.28-.505-.28-.876 0-.401.106-.711.319-.928M27.549 12.596v-2.298h.478v.876h.893v-.876h.477v2.298h-.477V11.57h-.893v1.026h-.478M30.29 12.597h.477v-2.299h-.477zM31.831 10.538a.948.948 0 01.706-.283c.384 0 .664.126.84.38a.83.83 0 01.157.429h-.48a.662.662 0 00-.117-.25c-.086-.099-.213-.149-.381-.149a.466.466 0 00-.405.211c-.099.141-.148.34-.148.598 0 .257.052.45.156.579a.492.492 0 00.397.192c.165 0 .291-.055.377-.165a.711.711 0 00.12-.266h.476c-.041.25-.145.454-.314.611a.926.926 0 01-.651.235c-.327 0-.584-.106-.771-.318-.187-.213-.281-.505-.281-.876 0-.401.106-.711.319-.928M34.64 11.728h.588l-.29-.904-.298.904zm.031-1.43h.544l.813 2.298h-.521l-.152-.472h-.846l-.155.472h-.503l.82-2.298zM38.056 11.015a.45.45 0 00-.266-.329.66.66 0 00-.263-.051.566.566 0 00-.456.21c-.119.139-.179.349-.179.629 0 .282.064.482.194.599a.632.632 0 00.438.175.569.569 0 00.396-.138.592.592 0 00.191-.364h-.532v-.383h.958v1.233h-.318l-.049-.286a1.086 1.086 0 01-.25.229.87.87 0 01-.467.117.97.97 0 01-.748-.317c-.203-.211-.304-.501-.304-.869 0-.372.102-.67.307-.895.205-.224.475-.336.812-.336.292 0 .527.074.704.222a.827.827 0 01.305.554h-.473M40.785 12.043c.112-.141.168-.34.168-.599 0-.258-.056-.457-.168-.598a.547.547 0 00-.453-.211.56.56 0 00-.456.21c-.113.14-.169.34-.169.599 0 .259.056.458.169.599a.56.56 0 00.456.21c.191 0 .341-.07.453-.21zm.3.349c-.173.179-.424.268-.753.268s-.579-.089-.753-.268c-.233-.219-.349-.535-.349-.948 0-.421.116-.738.349-.948.174-.178.424-.268.753-.268s.58.09.753.268c.232.21.348.527.348.948 0 .413-.116.729-.348.948z"/></g></svg>