<svg width="844" height="442" xmlns="http://www.w3.org/2000/svg" xmlns:xlink="http://www.w3.org/1999/xlink"><defs><filter x="-6.2%" y="-22.6%" width="125%" height="190.2%" filterUnits="objectBoundingBox" id="ad"><feOffset dx="1" dy="1" in="SourceAlpha" result="shadowOffsetOuter1"/><feGaussianBlur stdDeviation=".5" in="shadowOffsetOuter1" result="shadowBlurOuter1"/><feColorMatrix values="0 0 0 0 0 0 0 0 0 0 0 0 0 0 0 0 0 0 0.5 0" in="shadowBlurOuter1"/></filter><filter x="-18%" y="-25%" width="124.1%" height="200%" filterUnits="objectBoundingBox" id="bh"><feOffset dx="-1" dy="1" in="SourceAlpha" result="shadowOffsetOuter1"/><feGaussianBlur stdDeviation=".5" in="shadowOffsetOuter1" result="shadowBlurOuter1"/><feColorMatrix values="0 0 0 0 0 0 0 0 0 0 0 0 0 0 0 0 0 0 0.5 0" in="shadowBlurOuter1"/></filter><filter x="-1.8%" y="-80%" width="103.6%" height="260%" filterUnits="objectBoundingBox" id="c"><feGaussianBlur stdDeviation="3.5" in="SourceAlpha" result="shadowBlurInner1"/><feOffset dy="1" in="shadowBlurInner1" result="shadowOffsetInner1"/><feComposite in="shadowOffsetInner1" in2="SourceAlpha" operator="arithmetic" k2="-1" k3="1" result="shadowInnerInner1"/><feColorMatrix values="0 0 0 0 0 0 0 0 0 0 0 0 0 0 0 0 0 0 0.517427885 0" in="shadowInnerInner1"/></filter><filter x="-18%" y="-25%" width="124.1%" height="200%" filterUnits="objectBoundingBox" id="bf"><feOffset dx="-1" dy="1" in="SourceAlpha" result="shadowOffsetOuter1"/><feGaussianBlur stdDeviation=".5" in="shadowOffsetOuter1" result="shadowBlurOuter1"/><feColorMatrix values="0 0 0 0 0 0 0 0 0 0 0 0 0 0 0 0 0 0 0.5 0" in="shadowBlurOuter1"/></filter><filter x="-1.7%" y="-2.9%" width="103.3%" height="105.8%" filterUnits="objectBoundingBox" id="e"><feGaussianBlur stdDeviation="3" in="SourceAlpha" result="shadowBlurInner1"/><feOffset dy="1" in="shadowBlurInner1" result="shadowOffsetInner1"/><feComposite in="shadowOffsetInner1" in2="SourceAlpha" operator="arithmetic" k2="-1" k3="1" result="shadowInnerInner1"/><feColorMatrix values="0 0 0 0 0 0 0 0 0 0 0 0 0 0 0 0 0 0 0.5 0" in="shadowInnerInner1"/></filter><filter x="-6.2%" y="-30.1%" width="125%" height="220.3%" filterUnits="objectBoundingBox" id="bd"><feOffset dx="1" dy="1" in="SourceAlpha" result="shadowOffsetOuter1"/><feGaussianBlur stdDeviation=".5" in="shadowOffsetOuter1" result="shadowBlurOuter1"/><feColorMatrix values="0 0 0 0 0 0 0 0 0 0 0 0 0 0 0 0 0 0 0.5 0" in="shadowBlurOuter1"/></filter><filter x="-2.5%" y="-4%" width="110%" height="116%" filterUnits="objectBoundingBox" id="f"><feOffset dx="1" dy="1" in="SourceAlpha" result="shadowOffsetOuter1"/><feGaussianBlur stdDeviation=".5" in="shadowOffsetOuter1" result="shadowBlurOuter1"/><feColorMatrix values="0 0 0 0 0 0 0 0 0 0 0 0 0 0 0 0 0 0 0.5 0" in="shadowBlurOuter1"/></filter><filter x="-6.2%" y="-22.6%" width="125%" height="190.2%" filterUnits="objectBoundingBox" id="bb"><feOffset dx="1" dy="1" in="SourceAlpha" result="shadowOffsetOuter1"/><feGaussianBlur stdDeviation=".5" in="shadowOffsetOuter1" result="shadowBlurOuter1"/><feColorMatrix values="0 0 0 0 0 0 0 0 0 0 0 0 0 0 0 0 0 0 0.5 0" in="shadowBlurOuter1"/></filter><filter x="-18%" y="-25%" width="124.1%" height="200%" filterUnits="objectBoundingBox" id="h"><feOffset dx="-1" dy="1" in="SourceAlpha" result="shadowOffsetOuter1"/><feGaussianBlur stdDeviation=".5" in="shadowOffsetOuter1" result="shadowBlurOuter1"/><feColorMatrix values="0 0 0 0 0 0 0 0 0 0 0 0 0 0 0 0 0 0 0.5 0" in="shadowBlurOuter1"/></filter><filter x="-16.9%" y="-25%" width="122.6%" height="200%" filterUnits="objectBoundingBox" id="aZ"><feOffset dx="-1" dy="1" in="SourceAlpha" result="shadowOffsetOuter1"/><feGaussianBlur stdDeviation=".5" in="shadowOffsetOuter1" result="shadowBlurOuter1"/><feColorMatrix values="0 0 0 0 0 0 0 0 0 0 0 0 0 0 0 0 0 0 0.5 0" in="shadowBlurOuter1"/></filter><filter x="-18%" y="-25%" width="124.1%" height="200%" filterUnits="objectBoundingBox" id="j"><feOffset dx="-1" dy="1" in="SourceAlpha" result="shadowOffsetOuter1"/><feGaussianBlur stdDeviation=".5" in="shadowOffsetOuter1" result="shadowBlurOuter1"/><feColorMatrix values="0 0 0 0 0 0 0 0 0 0 0 0 0 0 0 0 0 0 0.5 0" in="shadowBlurOuter1"/></filter><filter x="-6.2%" y="-22.6%" width="125%" height="190.2%" filterUnits="objectBoundingBox" id="aX"><feOffset dx="1" dy="1" in="SourceAlpha" result="shadowOffsetOuter1"/><feGaussianBlur stdDeviation=".5" in="shadowOffsetOuter1" result="shadowBlurOuter1"/><feColorMatrix values="0 0 0 0 0 0 0 0 0 0 0 0 0 0 0 0 0 0 0.5 0" in="shadowBlurOuter1"/></filter><filter x="-6.2%" y="-22.6%" width="125%" height="190.2%" filterUnits="objectBoundingBox" id="l"><feOffset dx="1" dy="1" in="SourceAlpha" result="shadowOffsetOuter1"/><feGaussianBlur stdDeviation=".5" in="shadowOffsetOuter1" result="shadowBlurOuter1"/><feColorMatrix values="0 0 0 0 0 0 0 0 0 0 0 0 0 0 0 0 0 0 0.5 0" in="shadowBlurOuter1"/></filter><filter x="-16.9%" y="-25%" width="122.6%" height="200%" filterUnits="objectBoundingBox" id="aV"><feOffset dx="-1" dy="1" in="SourceAlpha" result="shadowOffsetOuter1"/><feGaussianBlur stdDeviation=".5" in="shadowOffsetOuter1" result="shadowBlurOuter1"/><feColorMatrix values="0 0 0 0 0 0 0 0 0 0 0 0 0 0 0 0 0 0 0.5 0" in="shadowBlurOuter1"/></filter><filter x="-6.2%" y="-30.1%" width="125%" height="220.3%" filterUnits="objectBoundingBox" id="n"><feOffset dx="1" dy="1" in="SourceAlpha" result="shadowOffsetOuter1"/><feGaussianBlur stdDeviation=".5" in="shadowOffsetOuter1" result="shadowBlurOuter1"/><feColorMatrix values="0 0 0 0 0 0 0 0 0 0 0 0 0 0 0 0 0 0 0.5 0" in="shadowBlurOuter1"/></filter><filter x="-18%" y="-25%" width="124.1%" height="200%" filterUnits="objectBoundingBox" id="aT"><feOffset dx="-1" dy="1" in="SourceAlpha" result="shadowOffsetOuter1"/><feGaussianBlur stdDeviation=".5" in="shadowOffsetOuter1" result="shadowBlurOuter1"/><feColorMatrix values="0 0 0 0 0 0 0 0 0 0 0 0 0 0 0 0 0 0 0.5 0" in="shadowBlurOuter1"/></filter><filter x="-18%" y="-25%" width="124.1%" height="200%" filterUnits="objectBoundingBox" id="p"><feOffset dx="-1" dy="1" in="SourceAlpha" result="shadowOffsetOuter1"/><feGaussianBlur stdDeviation=".5" in="shadowOffsetOuter1" result="shadowBlurOuter1"/><feColorMatrix values="0 0 0 0 0 0 0 0 0 0 0 0 0 0 0 0 0 0 0.5 0" in="shadowBlurOuter1"/></filter><filter x="-18%" y="-25%" width="124.1%" height="200%" filterUnits="objectBoundingBox" id="aR"><feOffset dx="-1" dy="1" in="SourceAlpha" result="shadowOffsetOuter1"/><feGaussianBlur stdDeviation=".5" in="shadowOffsetOuter1" result="shadowBlurOuter1"/><feColorMatrix values="0 0 0 0 0 0 0 0 0 0 0 0 0 0 0 0 0 0 0.5 0" in="shadowBlurOuter1"/></filter><filter x="-16.9%" y="-25%" width="122.6%" height="200%" filterUnits="objectBoundingBox" id="r"><feOffset dx="-1" dy="1" in="SourceAlpha" result="shadowOffsetOuter1"/><feGaussianBlur stdDeviation=".5" in="shadowOffsetOuter1" result="shadowBlurOuter1"/><feColorMatrix values="0 0 0 0 0 0 0 0 0 0 0 0 0 0 0 0 0 0 0.5 0" in="shadowBlurOuter1"/></filter><filter x="-6.2%" y="-22.6%" width="125%" height="190.2%" filterUnits="objectBoundingBox" id="aP"><feOffset dx="1" dy="1" in="SourceAlpha" result="shadowOffsetOuter1"/><feGaussianBlur stdDeviation=".5" in="shadowOffsetOuter1" result="shadowBlurOuter1"/><feColorMatrix values="0 0 0 0 0 0 0 0 0 0 0 0 0 0 0 0 0 0 0.5 0" in="shadowBlurOuter1"/></filter><filter x="-6.2%" y="-22.6%" width="125%" height="190.2%" filterUnits="objectBoundingBox" id="t"><feOffset dx="1" dy="1" in="SourceAlpha" result="shadowOffsetOuter1"/><feGaussianBlur stdDeviation=".5" in="shadowOffsetOuter1" result="shadowBlurOuter1"/><feColorMatrix values="0 0 0 0 0 0 0 0 0 0 0 0 0 0 0 0 0 0 0.5 0" in="shadowBlurOuter1"/></filter><filter x="-16.9%" y="-25%" width="122.6%" height="200%" filterUnits="objectBoundingBox" id="aN"><feOffset dx="-1" dy="1" in="SourceAlpha" result="shadowOffsetOuter1"/><feGaussianBlur stdDeviation=".5" in="shadowOffsetOuter1" result="shadowBlurOuter1"/><feColorMatrix values="0 0 0 0 0 0 0 0 0 0 0 0 0 0 0 0 0 0 0.5 0" in="shadowBlurOuter1"/></filter><filter x="-16.9%" y="-25%" width="122.6%" height="200%" filterUnits="objectBoundingBox" id="v"><feOffset dx="-1" dy="1" in="SourceAlpha" result="shadowOffsetOuter1"/><feGaussianBlur stdDeviation=".5" in="shadowOffsetOuter1" result="shadowBlurOuter1"/><feColorMatrix values="0 0 0 0 0 0 0 0 0 0 0 0 0 0 0 0 0 0 0.5 0" in="shadowBlurOuter1"/></filter><filter x="-2%" y="-4%" width="108.2%" height="116%" filterUnits="objectBoundingBox" id="aL"><feOffset dx="1" dy="1" in="SourceAlpha" result="shadowOffsetOuter1"/><feGaussianBlur stdDeviation=".5" in="shadowOffsetOuter1" result="shadowBlurOuter1"/><feColorMatrix values="0 0 0 0 0 0 0 0 0 0 0 0 0 0 0 0 0 0 0.5 0" in="shadowBlurOuter1"/></filter><filter x="-6.2%" y="-22.6%" width="125%" height="190.2%" filterUnits="objectBoundingBox" id="x"><feOffset dx="1" dy="1" in="SourceAlpha" result="shadowOffsetOuter1"/><feGaussianBlur stdDeviation=".5" in="shadowOffsetOuter1" result="shadowBlurOuter1"/><feColorMatrix values="0 0 0 0 0 0 0 0 0 0 0 0 0 0 0 0 0 0 0.5 0" in="shadowBlurOuter1"/></filter><filter x="-16.9%" y="-25%" width="122.6%" height="200%" filterUnits="objectBoundingBox" id="aJ"><feOffset dx="-1" dy="1" in="SourceAlpha" result="shadowOffsetOuter1"/><feGaussianBlur stdDeviation=".5" in="shadowOffsetOuter1" result="shadowBlurOuter1"/><feColorMatrix values="0 0 0 0 0 0 0 0 0 0 0 0 0 0 0 0 0 0 0.5 0" in="shadowBlurOuter1"/></filter><filter x="-6.2%" y="-30.1%" width="125%" height="220.3%" filterUnits="objectBoundingBox" id="z"><feOffset dx="1" dy="1" in="SourceAlpha" result="shadowOffsetOuter1"/><feGaussianBlur stdDeviation=".5" in="shadowOffsetOuter1" result="shadowBlurOuter1"/><feColorMatrix values="0 0 0 0 0 0 0 0 0 0 0 0 0 0 0 0 0 0 0.5 0" in="shadowBlurOuter1"/></filter><filter x="-18%" y="-25%" width="124.1%" height="200%" filterUnits="objectBoundingBox" id="aH"><feOffset dx="-1" dy="1" in="SourceAlpha" result="shadowOffsetOuter1"/><feGaussianBlur stdDeviation=".5" in="shadowOffsetOuter1" result="shadowBlurOuter1"/><feColorMatrix values="0 0 0 0 0 0 0 0 0 0 0 0 0 0 0 0 0 0 0.5 0" in="shadowBlurOuter1"/></filter><filter x="-18%" y="-25%" width="124.1%" height="200%" filterUnits="objectBoundingBox" id="B"><feOffset dx="-1" dy="1" in="SourceAlpha" result="shadowOffsetOuter1"/><feGaussianBlur stdDeviation=".5" in="shadowOffsetOuter1" result="shadowBlurOuter1"/><feColorMatrix values="0 0 0 0 0 0 0 0 0 0 0 0 0 0 0 0 0 0 0.5 0" in="shadowBlurOuter1"/></filter><filter x="-6.2%" y="-30.1%" width="125%" height="220.3%" filterUnits="objectBoundingBox" id="aF"><feOffset dx="1" dy="1" in="SourceAlpha" result="shadowOffsetOuter1"/><feGaussianBlur stdDeviation=".5" in="shadowOffsetOuter1" result="shadowBlurOuter1"/><feColorMatrix values="0 0 0 0 0 0 0 0 0 0 0 0 0 0 0 0 0 0 0.5 0" in="shadowBlurOuter1"/></filter><filter x="-18%" y="-25%" width="124.1%" height="200%" filterUnits="objectBoundingBox" id="D"><feOffset dx="-1" dy="1" in="SourceAlpha" result="shadowOffsetOuter1"/><feGaussianBlur stdDeviation=".5" in="shadowOffsetOuter1" result="shadowBlurOuter1"/><feColorMatrix values="0 0 0 0 0 0 0 0 0 0 0 0 0 0 0 0 0 0 0.5 0" in="shadowBlurOuter1"/></filter><filter x="-18%" y="-25%" width="124.1%" height="200%" filterUnits="objectBoundingBox" id="aD"><feOffset dx="-1" dy="1" in="SourceAlpha" result="shadowOffsetOuter1"/><feGaussianBlur stdDeviation=".5" in="shadowOffsetOuter1" result="shadowBlurOuter1"/><feColorMatrix values="0 0 0 0 0 0 0 0 0 0 0 0 0 0 0 0 0 0 0.5 0" in="shadowBlurOuter1"/></filter><filter x="-16.9%" y="-25%" width="122.6%" height="200%" filterUnits="objectBoundingBox" id="F"><feOffset dx="-1" dy="1" in="SourceAlpha" result="shadowOffsetOuter1"/><feGaussianBlur stdDeviation=".5" in="shadowOffsetOuter1" result="shadowBlurOuter1"/><feColorMatrix values="0 0 0 0 0 0 0 0 0 0 0 0 0 0 0 0 0 0 0.5 0" in="shadowBlurOuter1"/></filter><filter x="-6.2%" y="-30.1%" width="125%" height="220.3%" filterUnits="objectBoundingBox" id="aB"><feOffset dx="1" dy="1" in="SourceAlpha" result="shadowOffsetOuter1"/><feGaussianBlur stdDeviation=".5" in="shadowOffsetOuter1" result="shadowBlurOuter1"/><feColorMatrix values="0 0 0 0 0 0 0 0 0 0 0 0 0 0 0 0 0 0 0.5 0" in="shadowBlurOuter1"/></filter><filter x="-6.2%" y="-22.6%" width="125%" height="190.2%" filterUnits="objectBoundingBox" id="H"><feOffset dx="1" dy="1" in="SourceAlpha" result="shadowOffsetOuter1"/><feGaussianBlur stdDeviation=".5" in="shadowOffsetOuter1" result="shadowBlurOuter1"/><feColorMatrix values="0 0 0 0 0 0 0 0 0 0 0 0 0 0 0 0 0 0 0.5 0" in="shadowBlurOuter1"/></filter><filter x="-16.9%" y="-25%" width="122.6%" height="200%" filterUnits="objectBoundingBox" id="az"><feOffset dx="-1" dy="1" in="SourceAlpha" result="shadowOffsetOuter1"/><feGaussianBlur stdDeviation=".5" in="shadowOffsetOuter1" result="shadowBlurOuter1"/><feColorMatrix values="0 0 0 0 0 0 0 0 0 0 0 0 0 0 0 0 0 0 0.5 0" in="shadowBlurOuter1"/></filter><filter x="-16.9%" y="-25%" width="122.6%" height="200%" filterUnits="objectBoundingBox" id="J"><feOffset dx="-1" dy="1" in="SourceAlpha" result="shadowOffsetOuter1"/><feGaussianBlur stdDeviation=".5" in="shadowOffsetOuter1" result="shadowBlurOuter1"/><feColorMatrix values="0 0 0 0 0 0 0 0 0 0 0 0 0 0 0 0 0 0 0.5 0" in="shadowBlurOuter1"/></filter><filter x="-16.9%" y="-25%" width="122.6%" height="200%" filterUnits="objectBoundingBox" id="ax"><feOffset dx="-1" dy="1" in="SourceAlpha" result="shadowOffsetOuter1"/><feGaussianBlur stdDeviation=".5" in="shadowOffsetOuter1" result="shadowBlurOuter1"/><feColorMatrix values="0 0 0 0 0 0 0 0 0 0 0 0 0 0 0 0 0 0 0.5 0" in="shadowBlurOuter1"/></filter><filter x="-6.2%" y="-22.6%" width="125%" height="190.2%" filterUnits="objectBoundingBox" id="L"><feOffset dx="1" dy="1" in="SourceAlpha" result="shadowOffsetOuter1"/><feGaussianBlur stdDeviation=".5" in="shadowOffsetOuter1" result="shadowBlurOuter1"/><feColorMatrix values="0 0 0 0 0 0 0 0 0 0 0 0 0 0 0 0 0 0 0.5 0" in="shadowBlurOuter1"/></filter><filter x="-18%" y="-25%" width="124.1%" height="200%" filterUnits="objectBoundingBox" id="av"><feOffset dx="-1" dy="1" in="SourceAlpha" result="shadowOffsetOuter1"/><feGaussianBlur stdDeviation=".5" in="shadowOffsetOuter1" result="shadowBlurOuter1"/><feColorMatrix values="0 0 0 0 0 0 0 0 0 0 0 0 0 0 0 0 0 0 0.5 0" in="shadowBlurOuter1"/></filter><filter x="-16.9%" y="-25%" width="122.6%" height="200%" filterUnits="objectBoundingBox" id="N"><feOffset dx="-1" dy="1" in="SourceAlpha" result="shadowOffsetOuter1"/><feGaussianBlur stdDeviation=".5" in="shadowOffsetOuter1" result="shadowBlurOuter1"/><feColorMatrix values="0 0 0 0 0 0 0 0 0 0 0 0 0 0 0 0 0 0 0.5 0" in="shadowBlurOuter1"/></filter><filter x="-6.2%" y="-30.1%" width="125%" height="220.3%" filterUnits="objectBoundingBox" id="at"><feOffset dx="1" dy="1" in="SourceAlpha" result="shadowOffsetOuter1"/><feGaussianBlur stdDeviation=".5" in="shadowOffsetOuter1" result="shadowBlurOuter1"/><feColorMatrix values="0 0 0 0 0 0 0 0 0 0 0 0 0 0 0 0 0 0 0.5 0" in="shadowBlurOuter1"/></filter><filter x="-6.2%" y="-22.6%" width="125%" height="190.2%" filterUnits="objectBoundingBox" id="P"><feOffset dx="1" dy="1" in="SourceAlpha" result="shadowOffsetOuter1"/><feGaussianBlur stdDeviation=".5" in="shadowOffsetOuter1" result="shadowBlurOuter1"/><feColorMatrix values="0 0 0 0 0 0 0 0 0 0 0 0 0 0 0 0 0 0 0.5 0" in="shadowBlurOuter1"/></filter><filter x="-18%" y="-25%" width="124.1%" height="200%" filterUnits="objectBoundingBox" id="ar"><feOffset dx="-1" dy="1" in="SourceAlpha" result="shadowOffsetOuter1"/><feGaussianBlur stdDeviation=".5" in="shadowOffsetOuter1" result="shadowBlurOuter1"/><feColorMatrix values="0 0 0 0 0 0 0 0 0 0 0 0 0 0 0 0 0 0 0.5 0" in="shadowBlurOuter1"/></filter><filter x="-16.9%" y="-25%" width="122.6%" height="200%" filterUnits="objectBoundingBox" id="R"><feOffset dx="-1" dy="1" in="SourceAlpha" result="shadowOffsetOuter1"/><feGaussianBlur stdDeviation=".5" in="shadowOffsetOuter1" result="shadowBlurOuter1"/><feColorMatrix values="0 0 0 0 0 0 0 0 0 0 0 0 0 0 0 0 0 0 0.5 0" in="shadowBlurOuter1"/></filter><filter x="-6.2%" y="-30.1%" width="125%" height="220.3%" filterUnits="objectBoundingBox" id="ap"><feOffset dx="1" dy="1" in="SourceAlpha" result="shadowOffsetOuter1"/><feGaussianBlur stdDeviation=".5" in="shadowOffsetOuter1" result="shadowBlurOuter1"/><feColorMatrix values="0 0 0 0 0 0 0 0 0 0 0 0 0 0 0 0 0 0 0.5 0" in="shadowBlurOuter1"/></filter><filter x="-6.2%" y="-22.6%" width="125%" height="190.2%" filterUnits="objectBoundingBox" id="T"><feOffset dx="1" dy="1" in="SourceAlpha" result="shadowOffsetOuter1"/><feGaussianBlur stdDeviation=".5" in="shadowOffsetOuter1" result="shadowBlurOuter1"/><feColorMatrix values="0 0 0 0 0 0 0 0 0 0 0 0 0 0 0 0 0 0 0.5 0" in="shadowBlurOuter1"/></filter><filter x="-16.9%" y="-25%" width="122.6%" height="200%" filterUnits="objectBoundingBox" id="an"><feOffset dx="-1" dy="1" in="SourceAlpha" result="shadowOffsetOuter1"/><feGaussianBlur stdDeviation=".5" in="shadowOffsetOuter1" result="shadowBlurOuter1"/><feColorMatrix values="0 0 0 0 0 0 0 0 0 0 0 0 0 0 0 0 0 0 0.5 0" in="shadowBlurOuter1"/></filter><filter x="-6.2%" y="-30.1%" width="125%" height="220.3%" filterUnits="objectBoundingBox" id="V"><feOffset dx="1" dy="1" in="SourceAlpha" result="shadowOffsetOuter1"/><feGaussianBlur stdDeviation=".5" in="shadowOffsetOuter1" result="shadowBlurOuter1"/><feColorMatrix values="0 0 0 0 0 0 0 0 0 0 0 0 0 0 0 0 0 0 0.5 0" in="shadowBlurOuter1"/></filter><filter x="-6.2%" y="-22.6%" width="125%" height="190.2%" filterUnits="objectBoundingBox" id="al"><feOffset dx="1" dy="1" in="SourceAlpha" result="shadowOffsetOuter1"/><feGaussianBlur stdDeviation=".5" in="shadowOffsetOuter1" result="shadowBlurOuter1"/><feColorMatrix values="0 0 0 0 0 0 0 0 0 0 0 0 0 0 0 0 0 0 0.5 0" in="shadowBlurOuter1"/></filter><filter x="-18%" y="-25%" width="124.1%" height="200%" filterUnits="objectBoundingBox" id="X"><feOffset dx="-1" dy="1" in="SourceAlpha" result="shadowOffsetOuter1"/><feGaussianBlur stdDeviation=".5" in="shadowOffsetOuter1" result="shadowBlurOuter1"/><feColorMatrix values="0 0 0 0 0 0 0 0 0 0 0 0 0 0 0 0 0 0 0.5 0" in="shadowBlurOuter1"/></filter><filter x="-16.9%" y="-25%" width="122.6%" height="200%" filterUnits="objectBoundingBox" id="aj"><feOffset dx="-1" dy="1" in="SourceAlpha" result="shadowOffsetOuter1"/><feGaussianBlur stdDeviation=".5" in="shadowOffsetOuter1" result="shadowBlurOuter1"/><feColorMatrix values="0 0 0 0 0 0 0 0 0 0 0 0 0 0 0 0 0 0 0.5 0" in="shadowBlurOuter1"/></filter><filter x="-6.2%" y="-22.6%" width="125%" height="190.2%" filterUnits="objectBoundingBox" id="Z"><feOffset dx="1" dy="1" in="SourceAlpha" result="shadowOffsetOuter1"/><feGaussianBlur stdDeviation=".5" in="shadowOffsetOuter1" result="shadowBlurOuter1"/><feColorMatrix values="0 0 0 0 0 0 0 0 0 0 0 0 0 0 0 0 0 0 0.5 0" in="shadowBlurOuter1"/></filter><filter x="-18%" y="-25%" width="124.1%" height="200%" filterUnits="objectBoundingBox" id="ah"><feOffset dx="-1" dy="1" in="SourceAlpha" result="shadowOffsetOuter1"/><feGaussianBlur stdDeviation=".5" in="shadowOffsetOuter1" result="shadowBlurOuter1"/><feColorMatrix values="0 0 0 0 0 0 0 0 0 0 0 0 0 0 0 0 0 0 0.5 0" in="shadowBlurOuter1"/></filter><filter x="-16.9%" y="-25%" width="122.6%" height="200%" filterUnits="objectBoundingBox" id="ab"><feOffset dx="-1" dy="1" in="SourceAlpha" result="shadowOffsetOuter1"/><feGaussianBlur stdDeviation=".5" in="shadowOffsetOuter1" result="shadowBlurOuter1"/><feColorMatrix values="0 0 0 0 0 0 0 0 0 0 0 0 0 0 0 0 0 0 0.5 0" in="shadowBlurOuter1"/></filter><filter x="-18%" y="-25%" width="124.1%" height="200%" filterUnits="objectBoundingBox" id="af"><feOffset dx="-1" dy="1" in="SourceAlpha" result="shadowOffsetOuter1"/><feGaussianBlur stdDeviation=".5" in="shadowOffsetOuter1" result="shadowBlurOuter1"/><feColorMatrix values="0 0 0 0 0 0 0 0 0 0 0 0 0 0 0 0 0 0 0.5 0" in="shadowBlurOuter1"/></filter><path id="E" d="M12.184 27.919H24.82l1.99 2-1.995 2H12.184l-1.995-2z"/><path id="b" d="M-7.17 50H215l-2.83 5H-10z"/><path id="ae" d="M3.92 0h12.165L18 2.216l-1.92 2.216H3.92L2 2.216z"/><path id="ai" d="M12.184 27.919H24.82l1.99 2-1.995 2H12.184l-1.995-2z"/><path id="ac" d="M-4.737 9.081h13.48l2.122 2-2.128 2H-4.737l-2.128-2z"/><path id="ak" d="M-4.737 27.919h13.48l2.122 2-2.128 2H-4.737l-2.128-2z"/><path id="aa" d="M3.92 36.568h12.165L18 38.784 16.08 41H3.92L2 38.784z"/><path id="am" d="M3.92 36.568h12.165L18 38.784 16.08 41H3.92L2 38.784z"/><path id="Y" d="M12.184 27.919H24.82l1.99 2-1.995 2H12.184l-1.995-2z"/><path id="ao" d="M-4.737 9.081h13.48l2.122 2-2.128 2H-4.737l-2.128-2z"/><path id="W" d="M3.92 18.838h12.165L18 20.5l-1.92 1.662H3.92L2 20.5z"/><path id="aq" d="M3.92 18.838h12.165L18 20.5l-1.92 1.662H3.92L2 20.5z"/><path id="U" d="M3.92 0h12.165L18 2.216l-1.92 2.216H3.92L2 2.216z"/><path id="as" d="M12.184 27.919H24.82l1.99 2-1.995 2H12.184l-1.995-2z"/><path id="S" d="M-4.737 9.081h13.48l2.122 2-2.128 2H-4.737l-2.128-2z"/><path id="au" d="M3.92 18.838h12.165L18 20.5l-1.92 1.662H3.92L2 20.5z"/><path id="Q" d="M3.92 36.568h12.165L18 38.784 16.08 41H3.92L2 38.784z"/><path id="aw" d="M12.184 9.081H24.82l1.99 2-1.995 2H12.184l-1.995-2z"/><path id="O" d="M-4.737 27.919h13.48l2.122 2-2.128 2H-4.737l-2.128-2z"/><path id="ay" d="M-4.737 27.919h13.48l2.122 2-2.128 2H-4.737l-2.128-2z"/><path id="M" d="M3.92 0h12.165L18 2.216l-1.92 2.216H3.92L2 2.216z"/><path id="aA" d="M-4.737 9.081h13.48l2.122 2-2.128 2H-4.737l-2.128-2z"/><path id="K" d="M-4.737 9.081h13.48l2.122 2-2.128 2H-4.737l-2.128-2z"/><path id="aC" d="M3.92 18.838h12.165L18 20.5l-1.92 1.662H3.92L2 20.5z"/><path id="I" d="M3.92 36.568h12.165L18 38.784 16.08 41H3.92L2 38.784z"/><path id="aE" d="M12.184 27.919H24.82l1.99 2-1.995 2H12.184l-1.995-2z"/><path id="G" d="M-4.737 27.919h13.48l2.122 2-2.128 2H-4.737l-2.128-2z"/><path id="aG" d="M3.92 18.838h12.165L18 20.5l-1.92 1.662H3.92L2 20.5z"/><path id="ag" d="M12.184 9.081H24.82l1.99 2-1.995 2H12.184l-1.995-2z"/><path id="aI" d="M12.184 9.081H24.82l1.99 2-1.995 2H12.184l-1.995-2z"/><path id="C" d="M12.184 9.081H24.82l1.99 2-1.995 2H12.184l-1.995-2z"/><path id="aK" d="M-4.737 27.919h13.48l2.122 2-2.128 2H-4.737l-2.128-2z"/><path id="A" d="M3.92 18.838h12.165L18 20.5l-1.92 1.662H3.92L2 20.5z"/><path id="bi" d="M12.184 27.919H24.82l1.99 2-1.995 2H12.184l-1.995-2z"/><path id="y" d="M3.92 0h12.165L18 2.216l-1.92 2.216H3.92L2 2.216z"/><path id="aO" d="M-4.737 9.081h13.48l2.122 2-2.128 2H-4.737l-2.128-2z"/><path id="w" d="M-4.737 9.081h13.48l2.122 2-2.128 2H-4.737l-2.128-2z"/><path id="aQ" d="M3.92 0h12.165L18 2.216l-1.92 2.216H3.92L2 2.216z"/><path id="u" d="M3.92 36.568h12.165L18 38.784 16.08 41H3.92L2 38.784z"/><path id="aS" d="M12.184 9.081H24.82l1.99 2-1.995 2H12.184l-1.995-2z"/><path id="s" d="M-4.737 27.919h13.48l2.122 2-2.128 2H-4.737l-2.128-2z"/><path id="aU" d="M12.184 27.919H24.82l1.99 2-1.995 2H12.184l-1.995-2z"/><path id="q" d="M12.184 9.081H24.82l1.99 2-1.995 2H12.184l-1.995-2z"/><path id="aW" d="M-4.737 27.919h13.48l2.122 2-2.128 2H-4.737l-2.128-2z"/><path id="o" d="M3.92 18.838h12.165L18 20.5l-1.92 1.662H3.92L2 20.5z"/><path id="aY" d="M3.92 36.568h12.165L18 38.784 16.08 41H3.92L2 38.784z"/><path id="m" d="M3.92 0h12.165L18 2.216l-1.92 2.216H3.92L2 2.216z"/><path id="ba" d="M-4.737 9.081h13.48l2.122 2-2.128 2H-4.737l-2.128-2z"/><path id="k" d="M12.184 27.919H24.82l1.99 2-1.995 2H12.184l-1.995-2z"/><path id="bc" d="M3.92 0h12.165L18 2.216l-1.92 2.216H3.92L2 2.216z"/><path id="i" d="M12.184 9.081H24.82l1.99 2-1.995 2H12.184l-1.995-2z"/><path id="be" d="M3.92 18.838h12.165L18 20.5l-1.92 1.662H3.92L2 20.5z"/><path id="d" d="M0 0h211v120H0z"/><path id="bg" d="M12.184 9.081H24.82l1.99 2-1.995 2H12.184l-1.995-2z"/><text id="g" font-family="DINAlternate-Bold, DIN Alternate" font-size="21" font-weight="bold" fill="#6A6F63"><tspan x="78.154" y="39">bpm</tspan></text><text id="aM" font-family="DINAlternate-Bold, DIN Alternate" font-size="21" font-weight="bold" fill="#6A6F63"><tspan x="14.026" y="39">st.</tspan></text><linearGradient x1="100%" y1="-.038%" x2="0%" y2="80.42%" id="a"><stop stop-color="#4A5762" offset="0%"/><stop stop-color="#5A6A77" offset="100%"/></linearGradient></defs><g fill="none" fill-rule="evenodd"><path fill="#515F6C" d="M504 442l340-170v-20L504 422z"/><path fill="#39434C" d="M504 442L0 190v-20l504 252z"/><path fill="#4A5762" d="M340 0L0 170l504 252 340-170z"/><g><g transform="translate(514 169)"><ellipse fill="#697C8C" cx="25" cy="14.5" rx="25" ry="14.5"/><path d="M50 12v23.05C50 45.685 41.667 51 25 51S0 45.684 0 35.05V12c0 10.333 8.333 15.5 25 15.5S50 22.333 50 12z" fill="url(#a)"/></g><g transform="translate(569 197)"><ellipse fill="#697C8C" cx="25" cy="14.5" rx="25" ry="14.5"/><path d="M50 12v23.05C50 45.685 41.667 51 25 51S0 45.684 0 35.05V12c0 10.333 8.333 15.5 25 15.5S50 22.333 50 12z" fill="url(#a)"/></g><g transform="translate(624 224)"><ellipse fill="#697C8C" cx="25" cy="14.5" rx="25" ry="14.5"/><path d="M50 12v23.05C50 45.685 41.667 51 25 51S0 45.684 0 35.05V12c0 10.333 8.333 15.5 25 15.5S50 22.333 50 12z" fill="url(#a)"/></g><g transform="translate(679 252)"><ellipse fill="#697C8C" cx="25" cy="14.5" rx="25" ry="14.5"/><path d="M50 12v23.05C50 45.685 41.667 51 25 51S0 45.684 0 35.05V12c0 10.333 8.333 15.5 25 15.5S50 22.333 50 12z" fill="url(#a)"/></g><g transform="translate(569 141)"><ellipse fill="#697C8C" cx="25" cy="14.5" rx="25" ry="14.5"/><path d="M50 12v23.05C50 45.685 41.667 51 25 51S0 45.684 0 35.05V12c0 10.333 8.333 15.5 25 15.5S50 22.333 50 12z" fill="url(#a)"/></g><g transform="translate(624 169)"><ellipse fill="#697C8C" cx="25" cy="14.5" rx="25" ry="14.5"/><path d="M50 12v23.05C50 45.685 41.667 51 25 51S0 45.684 0 35.05V12c0 10.333 8.333 15.5 25 15.5S50 22.333 50 12z" fill="url(#a)"/></g><g transform="translate(679 196)"><ellipse fill="#697C8C" cx="25" cy="14.5" rx="25" ry="14.5"/><path d="M50 12v23.05C50 45.685 41.667 51 25 51S0 45.684 0 35.05V12c0 10.333 8.333 15.5 25 15.5S50 22.333 50 12z" fill="url(#a)"/></g><g transform="translate(734 224)"><ellipse fill="#697C8C" cx="25" cy="14.5" rx="25" ry="14.5"/><path d="M50 12v23.05C50 45.685 41.667 51 25 51S0 45.684 0 35.05V12c0 10.333 8.333 15.5 25 15.5S50 22.333 50 12z" fill="url(#a)"/></g><g><path fill="#FFF" d="M367.46 297l36.208 17.896-36.208 17.895L332 314.896z"/><path fill="#D8D8D8" d="M367.46 332.791v5l36.208-17.895v-5z"/><path fill="#BEBEBE" d="M367.46 332.791v5L332 319.896v-5z"/><path fill="#FFF" d="M417.46 323l36.208 17.896-36.208 17.895L382 340.896z"/><path fill="#D8D8D8" d="M417.46 358.791v5l36.208-17.895v-5z"/><path fill="#BEBEBE" d="M417.46 358.791v5L382 345.896v-5z"/><path fill="#FFF" d="M318.46 272l36.208 17.896-36.208 17.895L283 289.896z"/><path fill="#D8D8D8" d="M318.46 307.791v5l36.208-17.895v-5z"/><path fill="#BEBEBE" d="M318.46 307.791v5L283 294.896v-5z"/><path fill="#FFF" d="M267.46 247l36.208 17.896-36.208 17.895L232 264.896z"/><path fill="#D8D8D8" d="M267.46 282.791v5l36.208-17.895v-5z"/><path fill="#BEBEBE" d="M267.46 282.791v5L232 269.896v-5z"/><path fill="#FFF" d="M217.46 222l36.208 17.896-36.208 17.895L182 239.896z"/><path fill="#D8D8D8" d="M217.46 257.791v5l36.208-17.895v-5z"/><path fill="#BEBEBE" d="M217.46 257.791v5L182 244.896v-5z"/><g><path fill="#FFF" d="M167.46 197l36.208 17.896-36.208 17.895L132 214.896z"/><path fill="#D8D8D8" d="M167.46 232.791v5l36.208-17.895v-5z"/><path fill="#BEBEBE" d="M167.46 232.791v5L132 219.896v-5z"/></g><g><path fill="#FFF" d="M117.734 171.775l36.208 17.895-36.208 17.896-35.46-17.896z"/><path fill="#D8D8D8" d="M117.734 207.566v5l36.208-17.896v-5z"/><path fill="#BEBEBE" d="M117.734 207.566v5l-35.46-17.896v-5z"/></g><g><path fill="#FFF" d="M67.46 147l36.208 17.896L67.46 182.79 32 164.896z"/><path fill="#D8D8D8" d="M67.46 182.791v5l36.208-17.895v-5z"/><path fill="#BEBEBE" d="M67.46 182.791v5L32 169.896v-5z"/></g><g><path fill="#3F3F3F" d="M390.46 262l36.208 17.896-36.208 17.895L355 279.896z"/><path fill="#454343" d="M390.46 297.791v5l36.208-17.895v-5z"/><path fill="#3D3B3B" d="M390.46 297.791v5L355 284.896v-5z"/></g><g><path fill="#3F3F3F" d="M340.46 237l36.208 17.896-36.208 17.895L305 254.896z"/><path fill="#454343" d="M340.46 272.791v5l36.208-17.895v-5z"/><path fill="#3D3B3B" d="M340.46 272.791v5L305 259.896v-5z"/></g><g><path fill="#3F3F3F" d="M290.46 212l36.208 17.896-36.208 17.895L255 229.896z"/><path fill="#454343" d="M290.46 247.791v5l36.208-17.895v-5z"/><path fill="#3D3B3B" d="M290.46 247.791v5L255 234.896v-5z"/></g><g><path fill="#3F3F3F" d="M189.46 161l36.208 17.896-36.208 17.895L154 178.896z"/><path fill="#454343" d="M189.46 196.791v5l36.208-17.895v-5z"/><path fill="#3D3B3B" d="M189.46 196.791v5L154 183.896v-5z"/></g><g><path fill="#3F3F3F" d="M140.46 136l36.208 17.896-36.208 17.895L105 153.896z"/><path fill="#454343" d="M140.46 171.791v5l36.208-17.895v-5z"/><path fill="#3D3B3B" d="M140.46 171.791v5L105 158.896v-5z"/></g></g><g><path fill="#EDC06B" d="M512.5 323L480 340l73 36 32.5-16.5z"/><path fill="#F2D192" d="M553 376v5l32.5-16.5v-5z"/><path fill="#E8AE40" d="M480 340v5l73 36v-5z"/></g><g><path fill="#CC5D5D" d="M480 354l-34 17 45 23 34-17z"/><path fill="#D57B7B" d="M491 394v5l34-17v-5z"/><path fill="#BE3C3C" d="M491 399l-45-23v-5l45 23z"/></g><g><g transform="rotate(26.5 -183.568 1094.263)"><use fill="#8B8B8B" xlink:href="#b"/><use fill="#000" filter="url(#c)" xlink:href="#b"/></g><path fill="#D8D8D8" d="M581 316.5l-15-7 40-20.5 14.5 7.5z"/><path fill="#EFEDED" d="M581 316.5v14l39.5-20v-14z"/><path fill="#AFAFAF" d="M566 309.5v14l15 7v-14z"/></g></g><g><g transform="matrix(.87036 .44318 -.99492 .52745 340 15)"><use fill="#919C85" xlink:href="#d"/><use fill="#000" filter="url(#e)" xlink:href="#d"/></g><g fill="#6A6F63" transform="matrix(.87036 .44318 -.99492 .52745 337.263 21.879)"><use filter="url(#f)" xlink:href="#g"/><use xlink:href="#g"/></g><g opacity=".7"><path fill-opacity=".2" fill="#595C55" d="M319.535 31.277l13.411-7.11 3.852-.233-.376 2.009-13.406 7.107-3.857.236z"/><path fill-opacity=".2" fill="#595C55" d="M340.675 23.616l10.587 5.391-.538 2.018-3.876.318-10.583-5.39.533-2.019zM321.932 33.552l10.588 5.391.013 1.726-3.325.025-10.583-5.389-.017-1.727z"/><g transform="matrix(.99492 -.52745 .87036 .44318 314.289 40.77)"><use fill="#000" filter="url(#h)" xlink:href="#i"/><use fill="#595C55" xlink:href="#i"/></g><g transform="matrix(.99492 -.52745 .87036 .44318 279.151 42.357)"><use fill="#000" filter="url(#j)" xlink:href="#k"/><use fill="#595C55" xlink:href="#k"/></g><path fill-opacity=".2" fill="#595C55" d="M300.793 41.213l13.411-7.11 3.852-.233-.376 2.009-13.406 7.107-3.857.236z"/><path fill-opacity=".2" fill="#595C55" d="M304.293 42.903l10.587 5.392-.538 2.017-3.876.318-10.583-5.389.534-2.02z"/></g><g opacity=".7"><path fill-opacity=".2" fill="#595C55" d="M342.164 42.8l13.412-7.11 3.852-.233-.376 2.008-13.407 7.107-3.857.236z"/><g transform="matrix(.87036 .44318 -.99492 .52745 359.892 33.401)"><use fill="#000" filter="url(#l)" xlink:href="#m"/><use fill="#595C55" xlink:href="#m"/></g><g transform="matrix(.87036 .44318 -.99492 .52745 359.892 33.401)"><use fill="#000" filter="url(#n)" xlink:href="#o"/><use fill="#595C55" xlink:href="#o"/></g><g transform="matrix(.99492 -.52745 .87036 .44318 336.918 52.292)"><use fill="#000" filter="url(#p)" xlink:href="#q"/><use fill="#595C55" xlink:href="#q"/></g><path fill-opacity=".2" fill="#595C55" d="M338.202 59.826l12.573-6.666 3.72-.163-.244 1.939-12.568 6.663-3.725.165z"/><g transform="matrix(.99492 -.52745 .87036 .44318 303.836 37.864)"><use fill="#000" filter="url(#r)" xlink:href="#s"/><use fill="#595C55" xlink:href="#s"/></g><g transform="matrix(.87036 .44318 -.99492 .52745 359.892 33.401)"><use fill="#000" filter="url(#t)" xlink:href="#u"/><use fill="#595C55" xlink:href="#u"/></g></g><g opacity=".7"><g transform="matrix(.99492 -.52745 .87036 .44318 361.603 47.8)"><use fill="#000" filter="url(#v)" xlink:href="#w"/><use fill="#595C55" xlink:href="#w"/></g><g transform="matrix(.87036 .44318 -.99492 .52745 382.521 44.924)"><use fill="#000" filter="url(#x)" xlink:href="#y"/><use fill="#595C55" xlink:href="#y"/></g><g transform="matrix(.87036 .44318 -.99492 .52745 382.521 44.924)"><use fill="#000" filter="url(#z)" xlink:href="#A"/><use fill="#595C55" xlink:href="#A"/></g><g transform="matrix(.99492 -.52745 .87036 .44318 359.547 63.815)"><use fill="#000" filter="url(#B)" xlink:href="#C"/><use fill="#595C55" xlink:href="#C"/></g><g transform="matrix(.99492 -.52745 .87036 .44318 324.41 65.402)"><use fill="#000" filter="url(#D)" xlink:href="#E"/><use fill="#595C55" xlink:href="#E"/></g><g transform="matrix(.99492 -.52745 .87036 .44318 326.465 49.387)"><use fill="#000" filter="url(#F)" xlink:href="#G"/><use fill="#595C55" xlink:href="#G"/></g><g transform="matrix(.87036 .44318 -.99492 .52745 382.521 44.924)"><use fill="#000" filter="url(#H)" xlink:href="#I"/><use fill="#595C55" xlink:href="#I"/></g></g><g opacity=".7"><g transform="matrix(.99492 -.52745 .87036 .44318 391.43 126.064)"><use fill="#000" filter="url(#J)" xlink:href="#K"/><use fill="#595C55" xlink:href="#K"/></g><g transform="matrix(.87036 .44318 -.99492 .52745 412.348 123.19)"><use fill="#000" filter="url(#L)" xlink:href="#M"/><use fill="#595C55" xlink:href="#M"/></g><path fill-opacity=".2" fill="#595C55" d="M397.017 134.863l10.588 5.39.013 1.726-3.324.026-10.584-5.389-.017-1.728zM409.4 139.678l12.573-6.666 3.72-.163-.243 1.939-12.569 6.663-3.725.165zM390.658 149.614l12.573-6.666 3.72-.163-.244 1.939-12.568 6.663-3.725.165z"/><g transform="matrix(.99492 -.52745 .87036 .44318 356.292 127.652)"><use fill="#000" filter="url(#N)" xlink:href="#O"/><use fill="#595C55" xlink:href="#O"/></g><g transform="matrix(.87036 .44318 -.99492 .52745 412.348 123.19)"><use fill="#000" filter="url(#P)" xlink:href="#Q"/><use fill="#595C55" xlink:href="#Q"/></g><g><g transform="matrix(.99492 -.52745 .87036 .44318 368.8 114.542)"><use fill="#000" filter="url(#R)" xlink:href="#S"/><use fill="#595C55" xlink:href="#S"/></g><g transform="matrix(.87036 .44318 -.99492 .52745 389.719 111.667)"><use fill="#000" filter="url(#T)" xlink:href="#U"/><use fill="#595C55" xlink:href="#U"/></g><g transform="matrix(.87036 .44318 -.99492 .52745 389.719 111.667)"><use fill="#000" filter="url(#V)" xlink:href="#W"/><use fill="#595C55" xlink:href="#W"/></g><path fill-opacity=".2" fill="#595C55" d="M386.77 128.155l12.574-6.665 3.72-.163-.244 1.938-12.568 6.663-3.725.166z"/><g transform="matrix(.99492 -.52745 .87036 .44318 331.607 132.145)"><use fill="#000" filter="url(#X)" xlink:href="#Y"/><use fill="#595C55" xlink:href="#Y"/></g><path fill-opacity=".2" fill="#595C55" d="M353.249 131l13.411-7.11 3.852-.232-.376 2.009-13.406 7.107-3.858.235z"/><g transform="matrix(.87036 .44318 -.99492 .52745 389.719 111.667)"><use fill="#000" filter="url(#Z)" xlink:href="#aa"/><use fill="#595C55" xlink:href="#aa"/></g></g><g><g transform="matrix(.99492 -.52745 .87036 .44318 346.17 103.019)"><use fill="#000" filter="url(#ab)" xlink:href="#ac"/><use fill="#595C55" xlink:href="#ac"/></g><g transform="matrix(.87036 .44318 -.99492 .52745 367.09 100.144)"><use fill="#000" filter="url(#ad)" xlink:href="#ae"/><use fill="#595C55" xlink:href="#ae"/></g><path fill-opacity=".2" fill="#595C55" d="M351.759 111.817l10.588 5.391.013 1.726-3.325.026-10.583-5.39-.018-1.727z"/><g transform="matrix(.99492 -.52745 .87036 .44318 344.116 119.034)"><use fill="#000" filter="url(#af)" xlink:href="#ag"/><use fill="#595C55" xlink:href="#ag"/></g><g transform="matrix(.99492 -.52745 .87036 .44318 308.978 120.622)"><use fill="#000" filter="url(#ah)" xlink:href="#ai"/><use fill="#595C55" xlink:href="#ai"/></g><g transform="matrix(.99492 -.52745 .87036 .44318 311.033 104.606)"><use fill="#000" filter="url(#aj)" xlink:href="#ak"/><use fill="#595C55" xlink:href="#ak"/></g><g transform="matrix(.87036 .44318 -.99492 .52745 367.09 100.144)"><use fill="#000" filter="url(#al)" xlink:href="#am"/><use fill="#595C55" xlink:href="#am"/></g></g><g><g transform="matrix(.99492 -.52745 .87036 .44318 323.542 91.496)"><use fill="#000" filter="url(#an)" xlink:href="#ao"/><use fill="#595C55" xlink:href="#ao"/></g><path fill-opacity=".2" fill="#595C55" d="M347.872 90.358l10.588 5.392-.538 2.017-3.876.318-10.584-5.389.534-2.02z"/><g transform="matrix(.87036 .44318 -.99492 .52745 344.46 88.621)"><use fill="#000" filter="url(#ap)" xlink:href="#aq"/><use fill="#595C55" xlink:href="#aq"/></g><path fill-opacity=".2" fill="#595C55" d="M341.512 105.11l12.573-6.666 3.72-.163-.243 1.939-12.569 6.663-3.725.165z"/><g transform="matrix(.99492 -.52745 .87036 .44318 286.348 109.1)"><use fill="#000" filter="url(#ar)" xlink:href="#as"/><use fill="#595C55" xlink:href="#as"/></g><path fill-opacity=".2" fill="#595C55" d="M307.99 107.956l13.412-7.11 3.852-.233-.376 2.008-13.407 7.107-3.857.236z"/><path fill-opacity=".2" fill="#595C55" d="M311.49 109.646l10.588 5.391-.538 2.018-3.876.318-10.584-5.39.534-2.019z"/></g><g><path fill-opacity=".2" fill="#595C55" d="M304.103 86.497l13.412-7.11 3.852-.233-.376 2.008-13.407 7.108-3.857.235z"/><path fill-opacity=".2" fill="#595C55" d="M325.243 78.836l10.587 5.391-.538 2.018-3.876.318-10.583-5.39.534-2.02z"/><g transform="matrix(.87036 .44318 -.99492 .52745 321.83 77.099)"><use fill="#000" filter="url(#at)" xlink:href="#au"/><use fill="#595C55" xlink:href="#au"/></g><g transform="matrix(.99492 -.52745 .87036 .44318 298.857 95.989)"><use fill="#000" filter="url(#av)" xlink:href="#aw"/><use fill="#595C55" xlink:href="#aw"/></g><path fill-opacity=".2" fill="#595C55" d="M300.14 103.523l12.574-6.665 3.72-.163-.244 1.938-12.568 6.663-3.725.166z"/><g transform="matrix(.99492 -.52745 .87036 .44318 265.775 81.561)"><use fill="#000" filter="url(#ax)" xlink:href="#ay"/><use fill="#595C55" xlink:href="#ay"/></g><path fill-opacity=".2" fill="#595C55" d="M288.86 98.123l10.589 5.392-.539 2.017-3.876.318-10.583-5.389.534-2.02z"/></g><g><g transform="matrix(.99492 -.52745 .87036 .44318 278.283 68.45)"><use fill="#000" filter="url(#az)" xlink:href="#aA"/><use fill="#595C55" xlink:href="#aA"/></g><path fill-opacity=".2" fill="#595C55" d="M302.613 67.313l10.588 5.391-.538 2.018-3.876.318-10.583-5.389.533-2.02z"/><g transform="matrix(.87036 .44318 -.99492 .52745 299.202 65.576)"><use fill="#000" filter="url(#aB)" xlink:href="#aC"/><use fill="#595C55" xlink:href="#aC"/></g><path fill-opacity=".2" fill="#595C55" d="M296.254 82.064l12.573-6.665 3.72-.163-.244 1.938-12.568 6.663-3.725.166z"/><g transform="matrix(.99492 -.52745 .87036 .44318 241.09 86.054)"><use fill="#000" filter="url(#aD)" xlink:href="#aE"/><use fill="#595C55" xlink:href="#aE"/></g><path fill-opacity=".2" fill="#595C55" d="M262.732 84.91l13.411-7.11 3.852-.233-.376 2.009-13.406 7.107-3.858.236z"/><path fill-opacity=".2" fill="#595C55" d="M266.232 86.6l10.587 5.392-.538 2.018-3.876.318-10.583-5.39.533-2.02z"/></g><g><path fill-opacity=".2" fill="#595C55" d="M258.844 63.451l13.412-7.11 3.852-.233-.376 2.009-13.406 7.107-3.858.236z"/><path fill-opacity=".2" fill="#595C55" d="M279.984 55.79l10.588 5.392-.538 2.017-3.876.318-10.584-5.389.534-2.02z"/><g transform="matrix(.87036 .44318 -.99492 .52745 276.572 54.053)"><use fill="#000" filter="url(#aF)" xlink:href="#aG"/><use fill="#595C55" xlink:href="#aG"/></g><g transform="matrix(.99492 -.52745 .87036 .44318 253.599 72.944)"><use fill="#000" filter="url(#aH)" xlink:href="#aI"/><use fill="#595C55" xlink:href="#aI"/></g><path fill-opacity=".2" fill="#595C55" d="M254.882 80.478l12.573-6.666 3.72-.163-.243 1.939-12.568 6.663-3.726.165z"/><g transform="matrix(.99492 -.52745 .87036 .44318 220.516 58.516)"><use fill="#000" filter="url(#aJ)" xlink:href="#aK"/><use fill="#595C55" xlink:href="#aK"/></g><path fill-opacity=".2" fill="#595C55" d="M243.602 75.078l10.588 5.391-.538 2.018-3.876.318-10.584-5.39.534-2.02z"/></g></g><g><g fill="#6A6F63" transform="matrix(.87036 .44318 -.99492 .52745 437.354 72.845)"><use filter="url(#aL)" xlink:href="#aM"/><use xlink:href="#aM"/></g><g opacity=".7"><g transform="matrix(.99492 -.52745 .87036 .44318 447.768 91.674)"><use fill="#000" filter="url(#aN)" xlink:href="#aO"/><use fill="#595C55" xlink:href="#aO"/></g><g transform="matrix(.87036 .44318 -.99492 .52745 468.686 88.799)"><use fill="#000" filter="url(#aP)" xlink:href="#aQ"/><use fill="#595C55" xlink:href="#aQ"/></g><path fill-opacity=".2" fill="#595C55" d="M453.356 100.472l10.588 5.392.013 1.725-3.325.026-10.583-5.39-.018-1.727z"/><g transform="matrix(.99492 -.52745 .87036 .44318 445.713 107.69)"><use fill="#000" filter="url(#aR)" xlink:href="#aS"/><use fill="#595C55" xlink:href="#aS"/></g><g transform="matrix(.99492 -.52745 .87036 .44318 410.575 109.277)"><use fill="#000" filter="url(#aT)" xlink:href="#aU"/><use fill="#595C55" xlink:href="#aU"/></g><g transform="matrix(.99492 -.52745 .87036 .44318 412.63 93.262)"><use fill="#000" filter="url(#aV)" xlink:href="#aW"/><use fill="#595C55" xlink:href="#aW"/></g><g transform="matrix(.87036 .44318 -.99492 .52745 468.686 88.799)"><use fill="#000" filter="url(#aX)" xlink:href="#aY"/><use fill="#595C55" xlink:href="#aY"/></g></g><g opacity=".7"><g transform="matrix(.99492 -.52745 .87036 .44318 470.397 103.197)"><use fill="#000" filter="url(#aZ)" xlink:href="#ba"/><use fill="#595C55" xlink:href="#ba"/></g><g transform="matrix(.87036 .44318 -.99492 .52745 491.316 100.322)"><use fill="#000" filter="url(#bb)" xlink:href="#bc"/><use fill="#595C55" xlink:href="#bc"/></g><g transform="matrix(.87036 .44318 -.99492 .52745 491.316 100.322)"><use fill="#000" filter="url(#bd)" xlink:href="#be"/><use fill="#595C55" xlink:href="#be"/></g><g transform="matrix(.99492 -.52745 .87036 .44318 468.342 119.212)"><use fill="#000" filter="url(#bf)" xlink:href="#bg"/><use fill="#595C55" xlink:href="#bg"/></g><g transform="matrix(.99492 -.52745 .87036 .44318 433.204 120.8)"><use fill="#000" filter="url(#bh)" xlink:href="#bi"/><use fill="#595C55" xlink:href="#bi"/></g><path fill-opacity=".2" fill="#595C55" d="M454.846 119.656l13.411-7.11 3.852-.233-.376 2.009-13.406 7.107-3.857.236z"/><path fill-opacity=".2" fill="#595C55" d="M458.346 121.347l10.587 5.39-.538 2.018-3.876.319-10.583-5.39.534-2.02z"/></g></g><text font-family="Geometric706BT-BlackB, Geometr706 Md BT" font-size="24" font-weight="700" fill="#CC5D5D" transform="matrix(.87036 .44318 -.99492 .52745 340 15)"><tspan x="0" y="145">Super Synth</tspan></text></g></g></svg>