<svg xmlns="http://www.w3.org/2000/svg" xmlns:xlink="http://www.w3.org/1999/xlink" width="185" height="230" viewBox="0 0 426.501 543.12"><defs><linearGradient id="b"><stop offset="0" stop-color="#360d1b"/><stop offset="1" stop-color="#68293e"/></linearGradient><linearGradient id="a"><stop offset="0" stop-color="#6f1f3b"/><stop offset="1" stop-color="#ae667f"/></linearGradient><linearGradient xlink:href="#a" id="c" x1="563.664" y1="463.887" x2="140.729" y2="463.887" gradientUnits="userSpaceOnUse"/><linearGradient xlink:href="#b" id="d" x1="255.172" y1="674.668" x2="265.733" y2="583.72" gradientUnits="userSpaceOnUse"/></defs><path d="M22.272 277.818s-30.665 69.841-1.845 133.383c28.82 63.542 87.55 92.827 87.55 92.827l28.01 16.172L245 468.036l-35.635 1.965v-56.945h74.653v37.346s60.178-42.548 63.616-104.911c3.437-62.363 30.936-112.45 30.936-112.45s-18.66-37.32-77.586-60.399c-44.696-17.506.491-1.473.491-1.473V94.566h-88.88v183.651z" fill="#bd7391" fill-rule="evenodd"/><path d="M402.168 223.321V31.47H211.814" fill="none" stroke="#bd7391" stroke-width="3.1" stroke-linecap="round"/><path d="M563.664 356.606V571.17l-175.462-61.167s20.184-19.291 5.856-45.5c-14.327-26.209-32.377-25.775-32.377-25.775z" fill="url(#c)" fill-rule="evenodd" transform="translate(-143.413 -140.695)"/><path d="M210.251 298.952l.216 86.853s-42.888-6.68-46.121-39.87c-3.325-34.136 42.672-49.785 45.905-46.983z" fill="#6f1f3b" fill-rule="evenodd"/><path d="M209.992 300.126v83.885s42.982 4.924 42.982-43.606c0-43.104-42.982-40.28-42.982-40.28z" fill="#b3637c" fill-opacity=".933" fill-rule="evenodd"/><path d="M210.849 93.201V30.417H19.655v250.284h95.455l1.205-187.028 96.236-.401" fill="#bd7391" fill-rule="evenodd" stroke="#bd7391"/><path d="M119.439 160.635v18.2s44.84 7.09 46.154 49.046c1.313 41.957-45.216 51.345-45.216 51.345h62.101s25.704-22.224 18.2-55.751c-7.505-33.527-31.52-60.732-81.239-62.84z" fill="#bd7391" fill-rule="evenodd"/><path d="M253.448 566.586l1.293 107.543 98.276-49.784v-14.009s-67.457-2.155-99.569-43.75z" fill="url(#d)" fill-rule="evenodd" transform="translate(-143.413 -140.695)"/><path d="M281.29 447.743v-32.657h-72.57l.52 52.7s44.405.69 72.05-20.043z" fill="#c999a9" fill-rule="evenodd"/><g transform="translate(-143.413 -140.695)" fill="none" stroke="#2d000e" stroke-width="4" stroke-linecap="round" stroke-linejoin="round"><path d="M405.94 172.164s-10.643 14.11 10.644 17.822c21.287 3.713 19.802-20.05 19.802-18.564 0 1.485 3.96-19.555-26.98-22.278-30.94-2.722-36.881 22.773-36.881 22.773s-11.881 37.623 27.97 45.297c39.852 7.673 41.337-16.337 82.426-14.11 41.089 2.228 36.881 36.882 36.881 36.882s-1.485 37.129-29.455 37.129-19.802-16.832-16.832-18.07c2.97-1.237 16.336-11.88 39.109 4.95 22.772 16.833-1.485 50.248-1.485 50.248s-7.674 9.654-23.763 10.891c-16.089 1.238-20.544-14.108-20.544-14.108s1.485-12.377 19.307-11.387c17.821.99 30.693 10.644 25.742 39.604M303.268 173.93s2.288 13.4-13.072 15.687c-15.36 2.288-18.3-13.399-18.3-13.399s-4.249-20.261 25.816-25.49c30.066-5.229 41.83 20.915 40.85 21.896-.98.98 8.17 16.993-11.765 33.66-19.934 16.666-55.555 7.19-55.555 7.19s-61.765-29.086-80.72 9.15c-18.953 38.235 14.053 54.248 14.053 54.248s21.242 8.497 30.72-2.614c9.476-11.111-7.844-15.687-7.844-15.687s-22.549-4.575-33.987 11.438c-11.438 16.013-12.418 35.948 2.288 47.386 14.706 11.438 38.562 13.399 43.79-2.288 5.23-15.686-39.869-12.418-43.464 3.268-3.594 15.687-1.634 30.392 10.458 36.602 12.091 6.209 35.62 6.209 35.62 6.209v63.072s-1.306 6.536 2.288 11.438c3.595 4.902 8.497 4.575 8.497 4.575v235.294l173.856-85.294v-36.602h-140.85l-12.418-2.287-3.921-7.843v-83.334"/><path d="M443.68 235.795H261.64l-1.304 179.103M194.118 366.952s-68.953 82.07-31.103 175.006c37.849 92.937 113.548 118.045 117.67 119.544M426.46 590.3l.75 70.078s127.414-35.6 130.412-177.255C560.62 341.47 418.592 304.37 419.341 303.62M329.83 421.396h46.875"/><path d="M453.125 369.124h-24.432s-7.67-8.807-20.738-8.24c-13.069.57-21.307 5.967-23.58 16.762M333.807 368.271H310.51s-7.954-8.238-20.738-7.67c-12.784.568-20.455 7.102-27.273 17.898M320.17 378.783l-62.5.284M377.273 378.783h61.363M231.534 432.76s-36.364 67.33 21.023 132.102c57.386 64.773 138.636 40.341 138.636 40.341s74.432-18.466 92.046-88.92c17.613-70.455-17.046-109.66-53.41-138.069"/><circle cx="353.693" cy="483.044" r="43.75"/></g></svg>